<svg width="20" height="20" viewBox="0 0 20 20" fill="none" xmlns="http://www.w3.org/2000/svg">
<g clip-path="url(#clip0_231_1099)">
<path d="M17.6975 3.72906V5.57018C17.5652 5.34089 17.4228 5.1169 17.2697 4.89914C16.7339 4.13697 16.0849 3.46617 15.3406 2.90533C14.5874 2.33779 13.7545 1.89646 12.8651 1.59361C11.9452 1.28039 10.9819 1.12158 10.0022 1.12158C8.97906 1.12158 7.97556 1.29442 7.01967 1.63531C6.09585 1.96474 5.23726 2.44317 4.46773 3.05733C3.70581 3.66543 3.0527 4.38922 2.52661 5.20861C1.99067 6.04335 1.60156 6.95432 1.3701 7.9162C1.22138 8.53427 1.60185 9.15589 2.21994 9.30461C2.31045 9.32638 2.40102 9.33682 2.49017 9.33682C3.0099 9.33682 3.4814 8.98235 3.60835 8.45479C3.94753 7.04518 4.76273 5.76735 5.90379 4.85667C6.47386 4.4017 7.10943 4.04743 7.79286 3.80373C8.49993 3.55159 9.24323 3.42375 10.0022 3.42375C11.442 3.42375 12.809 3.88027 13.9552 4.74395C14.7308 5.32839 15.3703 6.08492 15.8219 6.93855H14.5466C13.9109 6.93855 13.3955 7.4539 13.3955 8.08962C13.3955 8.72535 13.9109 9.2407 14.5466 9.2407H18.8485C19.4843 9.2407 19.9996 8.72535 19.9996 8.08962V3.72906C19.9996 3.09334 19.4843 2.57798 18.8485 2.57798C18.2128 2.57798 17.6975 3.09334 17.6975 3.72906Z" fill="white"/>
<path d="M1.15107 17.4219C1.78679 17.4219 2.30214 16.9066 2.30214 16.2708V14.422C2.98785 15.6155 3.94261 16.6354 5.10098 17.4037C6.55344 18.367 8.24543 18.8767 9.9946 18.8782C9.99556 18.8782 9.9965 18.8783 9.99745 18.8783C9.99821 18.8783 9.999 18.8783 9.99977 18.8783C10.0007 18.8783 10.0016 18.8783 10.0025 18.8783C10.0037 18.8783 10.0049 18.8782 10.0061 18.8782C11.0262 18.8772 12.0267 18.7045 12.9799 18.3645C13.9037 18.0351 14.7623 17.5567 15.5318 16.9425C16.2938 16.3345 16.9469 15.6106 17.473 14.7913C18.0089 13.9565 18.398 13.0456 18.6295 12.0837C18.7782 11.4656 18.3978 10.844 17.7796 10.6953C17.1615 10.5466 16.54 10.927 16.3912 11.5451C16.052 12.9547 15.2368 14.2326 14.0958 15.1432C13.5257 15.5982 12.8902 15.9525 12.2067 16.1961C11.5004 16.448 10.7579 16.5758 9.99979 16.5761C8.70283 16.5756 7.44888 16.1984 6.37341 15.4851C5.44598 14.87 4.69477 14.0379 4.18074 13.0613H5.45301C6.08876 13.0613 6.60409 12.546 6.60409 11.9103C6.60409 11.2745 6.08873 10.7592 5.45301 10.7592H1.15107C0.515351 10.7592 0 11.2745 0 11.9103V16.2708C0 16.9066 0.515351 17.4219 1.15107 17.4219Z" fill="white"/>
</g>
<defs>
<clipPath id="clip0_231_1099">
<rect width="20" height="20" fill="white"/>
</clipPath>
</defs>
</svg>
